<svg width="690" height="117" viewBox="0 0 690 117" fill="none" xmlns="http://www.w3.org/2000/svg">
<path d="M6.04527 112.18C5.06127 112.18 4.11927 112.042 3.21927 111.766C2.31927 111.478 1.60527 111.112 1.07727 110.668L1.88727 108.85C2.39127 109.246 3.01527 109.576 3.75927 109.84C4.50327 110.104 5.26527 110.236 6.04527 110.236C6.70527 110.236 7.23927 110.164 7.64727 110.02C8.05527 109.876 8.35527 109.684 8.54727 109.444C8.73927 109.192 8.83527 108.91 8.83527 108.598C8.83527 108.214 8.69727 107.908 8.42127 107.68C8.14527 107.44 7.78527 107.254 7.34127 107.122C6.90927 106.978 6.42327 106.846 5.88327 106.726C5.35527 106.606 4.82127 106.468 4.28127 106.312C3.75327 106.144 3.26727 105.934 2.82327 105.682C2.39127 105.418 2.03727 105.07 1.76127 104.638C1.48527 104.206 1.34727 103.654 1.34727 102.982C1.34727 102.298 1.52727 101.674 1.88727 101.11C2.25927 100.534 2.81727 100.078 3.56127 99.742C4.31727 99.394 5.27127 99.22 6.42327 99.22C7.17927 99.22 7.92927 99.316 8.67327 99.508C9.41727 99.7 10.0653 99.976 10.6173 100.336L9.87927 102.154C9.31527 101.818 8.73327 101.572 8.13327 101.416C7.53327 101.248 6.95727 101.164 6.40527 101.164C5.75727 101.164 5.22927 101.242 4.82127 101.398C4.42527 101.554 4.13127 101.758 3.93927 102.01C3.75927 102.262 3.66927 102.55 3.66927 102.874C3.66927 103.258 3.80127 103.57 4.06527 103.81C4.34127 104.038 4.69527 104.218 5.12727 104.35C5.57127 104.482 6.06327 104.614 6.60327 104.746C7.14327 104.866 7.67727 105.004 8.20527 105.16C8.74527 105.316 9.23127 105.52 9.66327 105.772C10.1073 106.024 10.4613 106.366 10.7253 106.798C11.0013 107.23 11.1393 107.776 11.1393 108.436C11.1393 109.108 10.9533 109.732 10.5813 110.308C10.2213 110.872 9.66327 111.328 8.90727 111.676C8.15127 112.012 7.19727 112.18 6.04527 112.18ZM27.4596 112V99.4H36.6576V101.362H29.7996V110.038H36.9096V112H27.4596ZM29.6196 106.564V104.638H35.8836V106.564H29.6196ZM53.5182 112V99.4H55.8582V110.02H62.4462V112H53.5182ZM78.2936 112V99.4H87.4916V101.362H80.6336V112H78.2936ZM80.4356 107.176V105.196H86.7176V107.176H80.4356ZM122.729 112V99.4H125.069V112H122.729ZM142.477 112V99.4H144.403L149.911 108.598H148.903L154.321 99.4H156.247L156.265 112H154.051L154.033 102.874H154.501L149.893 110.56H148.849L144.169 102.874H144.709V112H142.477ZM173.669 112V99.4H178.853C179.969 99.4 180.923 99.58 181.715 99.94C182.519 100.3 183.137 100.816 183.569 101.488C184.001 102.16 184.217 102.958 184.217 103.882C184.217 104.806 184.001 105.604 183.569 106.276C183.137 106.948 182.519 107.464 181.715 107.824C180.923 108.184 179.969 108.364 178.853 108.364H174.965L176.009 107.266V112H173.669ZM176.009 107.518L174.965 106.384H178.745C179.777 106.384 180.551 106.168 181.067 105.736C181.595 105.292 181.859 104.674 181.859 103.882C181.859 103.078 181.595 102.46 181.067 102.028C180.551 101.596 179.777 101.38 178.745 101.38H174.965L176.009 100.228V107.518ZM200.553 112V99.4H205.719C207.399 99.4 208.713 99.796 209.661 100.588C210.621 101.38 211.101 102.478 211.101 103.882C211.101 104.806 210.885 105.604 210.453 106.276C210.021 106.936 209.403 107.446 208.599 107.806C207.807 108.154 206.853 108.328 205.737 108.328H201.849L202.893 107.266V112H200.553ZM208.797 112L205.611 107.428H208.113L211.317 112H208.797ZM202.893 107.518L201.849 106.402H205.629C206.661 106.402 207.435 106.18 207.951 105.736C208.479 105.292 208.743 104.674 208.743 103.882C208.743 103.078 208.479 102.46 207.951 102.028C207.435 101.596 206.661 101.38 205.629 101.38H201.849L202.893 100.228V107.518ZM233.623 112.18C232.639 112.18 231.733 112.018 230.905 111.694C230.077 111.37 229.357 110.92 228.745 110.344C228.133 109.756 227.659 109.072 227.323 108.292C226.987 107.5 226.819 106.636 226.819 105.7C226.819 104.764 226.987 103.906 227.323 103.126C227.659 102.334 228.133 101.65 228.745 101.074C229.357 100.486 230.077 100.03 230.905 99.706C231.733 99.382 232.633 99.22 233.605 99.22C234.589 99.22 235.489 99.382 236.305 99.706C237.133 100.03 237.853 100.486 238.465 101.074C239.077 101.65 239.551 102.334 239.887 103.126C240.223 103.906 240.391 104.764 240.391 105.7C240.391 106.636 240.223 107.5 239.887 108.292C239.551 109.084 239.077 109.768 238.465 110.344C237.853 110.92 237.133 111.37 236.305 111.694C235.489 112.018 234.595 112.18 233.623 112.18ZM233.605 110.128C234.241 110.128 234.829 110.02 235.369 109.804C235.909 109.588 236.377 109.282 236.773 108.886C237.169 108.478 237.475 108.01 237.691 107.482C237.919 106.942 238.033 106.348 238.033 105.7C238.033 105.052 237.919 104.464 237.691 103.936C237.475 103.396 237.169 102.928 236.773 102.532C236.377 102.124 235.909 101.812 235.369 101.596C234.829 101.38 234.241 101.272 233.605 101.272C232.969 101.272 232.381 101.38 231.841 101.596C231.313 101.812 230.845 102.124 230.437 102.532C230.041 102.928 229.729 103.396 229.501 103.936C229.285 104.464 229.177 105.052 229.177 105.7C229.177 106.336 229.285 106.924 229.501 107.464C229.729 108.004 230.041 108.478 230.437 108.886C230.833 109.282 231.301 109.588 231.841 109.804C232.381 110.02 232.969 110.128 233.605 110.128ZM260.193 112L254.685 99.4H257.223L262.137 110.794H260.679L265.647 99.4H267.987L262.497 112H260.193ZM283.317 112V99.4H285.657V112H283.317ZM303.065 112V99.4H304.991L312.893 109.102H311.939V99.4H314.261V112H312.335L304.433 102.298H305.387V112H303.065ZM337.523 112.18C336.539 112.18 335.633 112.024 334.805 111.712C333.989 111.388 333.275 110.938 332.663 110.362C332.051 109.774 331.577 109.084 331.241 108.292C330.905 107.5 330.737 106.636 330.737 105.7C330.737 104.764 330.905 103.9 331.241 103.108C331.577 102.316 332.051 101.632 332.663 101.056C333.287 100.468 334.013 100.018 334.841 99.706C335.669 99.382 336.575 99.22 337.559 99.22C338.627 99.22 339.587 99.394 340.439 99.742C341.303 100.09 342.029 100.6 342.617 101.272L341.141 102.712C340.649 102.22 340.115 101.86 339.539 101.632C338.975 101.392 338.351 101.272 337.667 101.272C337.007 101.272 336.395 101.38 335.831 101.596C335.267 101.812 334.781 102.118 334.373 102.514C333.965 102.91 333.647 103.378 333.419 103.918C333.203 104.458 333.095 105.052 333.095 105.7C333.095 106.336 333.203 106.924 333.419 107.464C333.647 108.004 333.965 108.478 334.373 108.886C334.781 109.282 335.261 109.588 335.813 109.804C336.365 110.02 336.977 110.128 337.649 110.128C338.273 110.128 338.873 110.032 339.449 109.84C340.037 109.636 340.595 109.3 341.123 108.832L342.455 110.578C341.795 111.106 341.027 111.508 340.151 111.784C339.287 112.048 338.411 112.18 337.523 112.18ZM342.455 110.578L340.241 110.272V105.556H342.455V110.578ZM376.734 112L382.404 99.4H384.708L390.396 112H387.948L383.07 100.642H384.006L379.146 112H376.734ZM379.344 109.084L379.974 107.248H386.778L387.408 109.084H379.344ZM405.999 112V99.4H408.339V112H405.999ZM444.721 112V99.4H449.887C451.567 99.4 452.881 99.796 453.829 100.588C454.789 101.38 455.269 102.478 455.269 103.882C455.269 104.806 455.053 105.604 454.621 106.276C454.189 106.936 453.571 107.446 452.767 107.806C451.975 108.154 451.021 108.328 449.905 108.328H446.017L447.061 107.266V112H444.721ZM452.965 112L449.779 107.428H452.281L455.485 112H452.965ZM447.061 107.518L446.017 106.402H449.797C450.829 106.402 451.603 106.18 452.119 105.736C452.647 105.292 452.911 104.674 452.911 103.882C452.911 103.078 452.647 102.46 452.119 102.028C451.603 101.596 450.829 101.38 449.797 101.38H446.017L447.061 100.228V107.518ZM477.305 112.18C475.577 112.18 474.221 111.694 473.237 110.722C472.265 109.75 471.779 108.346 471.779 106.51V99.4H474.119V106.42C474.119 107.716 474.395 108.658 474.947 109.246C475.511 109.834 476.303 110.128 477.323 110.128C478.343 110.128 479.129 109.834 479.681 109.246C480.233 108.658 480.509 107.716 480.509 106.42V99.4H482.813V106.51C482.813 108.346 482.321 109.75 481.337 110.722C480.365 111.694 479.021 112.18 477.305 112.18ZM500.09 112V99.4H502.43V110.02H509.018V112H500.09ZM524.866 112V99.4H534.064V101.362H527.206V110.038H534.316V112H524.866ZM527.026 106.564V104.638H533.29V106.564H527.026ZM554.83 112.18C553.846 112.18 552.904 112.042 552.004 111.766C551.104 111.478 550.39 111.112 549.862 110.668L550.672 108.85C551.176 109.246 551.8 109.576 552.544 109.84C553.288 110.104 554.05 110.236 554.83 110.236C555.49 110.236 556.024 110.164 556.432 110.02C556.84 109.876 557.14 109.684 557.332 109.444C557.524 109.192 557.62 108.91 557.62 108.598C557.62 108.214 557.482 107.908 557.206 107.68C556.93 107.44 556.57 107.254 556.126 107.122C555.694 106.978 555.208 106.846 554.668 106.726C554.14 106.606 553.606 106.468 553.066 106.312C552.538 106.144 552.052 105.934 551.608 105.682C551.176 105.418 550.822 105.07 550.546 104.638C550.27 104.206 550.132 103.654 550.132 102.982C550.132 102.298 550.312 101.674 550.672 101.11C551.044 100.534 551.602 100.078 552.346 99.742C553.102 99.394 554.056 99.22 555.208 99.22C555.964 99.22 556.714 99.316 557.458 99.508C558.202 99.7 558.85 99.976 559.402 100.336L558.664 102.154C558.1 101.818 557.518 101.572 556.918 101.416C556.318 101.248 555.742 101.164 555.19 101.164C554.542 101.164 554.014 101.242 553.606 101.398C553.21 101.554 552.916 101.758 552.724 102.01C552.544 102.262 552.454 102.55 552.454 102.874C552.454 103.258 552.586 103.57 552.85 103.81C553.126 104.038 553.48 104.218 553.912 104.35C554.356 104.482 554.848 104.614 555.388 104.746C555.928 104.866 556.462 105.004 556.99 105.16C557.53 105.316 558.016 105.52 558.448 105.772C558.892 106.024 559.246 106.366 559.51 106.798C559.786 107.23 559.924 107.776 559.924 108.436C559.924 109.108 559.738 109.732 559.366 110.308C559.006 110.872 558.448 111.328 557.692 111.676C556.936 112.012 555.982 112.18 554.83 112.18Z" fill="url(#paint0_linear_2121_345)"/>
<path d="M33.52 79.28C29.04 79.28 24.88 78.5867 21.04 77.2C17.2533 75.76 13.9467 73.7333 11.12 71.12C8.34667 68.5067 6.18667 65.4133 4.64 61.84C3.09333 58.2667 2.32 54.32 2.32 50C2.32 45.68 3.09333 41.7333 4.64 38.16C6.18667 34.5867 8.34667 31.4933 11.12 28.88C13.9467 26.2667 17.2533 24.2667 21.04 22.88C24.88 21.44 29.04 20.72 33.52 20.72C39.0133 20.72 43.8667 21.68 48.08 23.6C52.3467 25.52 55.8667 28.2933 58.64 31.92L46.72 42.56C45.0667 40.48 43.2267 38.88 41.2 37.76C39.2267 36.5867 36.9867 36 34.48 36C32.5067 36 30.72 36.32 29.12 36.96C27.52 37.6 26.1333 38.5333 24.96 39.76C23.84 40.9867 22.96 42.48 22.32 44.24C21.68 45.9467 21.36 47.8667 21.36 50C21.36 52.1333 21.68 54.08 22.32 55.84C22.96 57.5467 23.84 59.0133 24.96 60.24C26.1333 61.4667 27.52 62.4 29.12 63.04C30.72 63.68 32.5067 64 34.48 64C36.9867 64 39.2267 63.44 41.2 62.32C43.2267 61.1467 45.0667 59.52 46.72 57.44L58.64 68.08C55.8667 71.6533 52.3467 74.4267 48.08 76.4C43.8667 78.32 39.0133 79.28 33.52 79.28ZM92.4492 78.8C87.4892 78.8 83.0892 77.84 79.2492 75.92C75.4625 73.9467 72.4758 71.2533 70.2892 67.84C68.1025 64.4267 67.0092 60.5067 67.0092 56.08C67.0092 51.6533 68.1025 47.7333 70.2892 44.32C72.4758 40.9067 75.4625 38.24 79.2492 36.32C83.0892 34.4 87.4892 33.44 92.4492 33.44C97.4092 33.44 101.809 34.4 105.649 36.32C109.489 38.24 112.476 40.9067 114.609 44.32C116.796 47.7333 117.889 51.6533 117.889 56.08C117.889 60.5067 116.796 64.4267 114.609 67.84C112.476 71.2533 109.489 73.9467 105.649 75.92C101.809 77.84 97.4092 78.8 92.4492 78.8ZM92.4492 64.72C93.7825 64.72 94.9825 64.4 96.0492 63.76C97.1158 63.12 97.9692 62.16 98.6092 60.88C99.2492 59.5467 99.5692 57.9467 99.5692 56.08C99.5692 54.16 99.2492 52.5867 98.6092 51.36C97.9692 50.08 97.1158 49.12 96.0492 48.48C94.9825 47.84 93.7825 47.52 92.4492 47.52C91.1158 47.52 89.9158 47.84 88.8492 48.48C87.7825 49.12 86.9292 50.08 86.2892 51.36C85.6492 52.5867 85.3292 54.16 85.3292 56.08C85.3292 57.9467 85.6492 59.5467 86.2892 60.88C86.9292 62.16 87.7825 63.12 88.8492 63.76C89.9158 64.4 91.1158 64.72 92.4492 64.72ZM131.065 78V34.24H148.265V47.04L144.825 43.36C146.531 40.0533 148.825 37.5733 151.705 35.92C154.638 34.2667 157.891 33.44 161.465 33.44C164.825 33.44 167.865 34.1333 170.585 35.52C173.305 36.8533 175.438 38.96 176.985 41.84C178.585 44.72 179.385 48.4533 179.385 53.04V78H161.305V56.16C161.305 53.44 160.825 51.52 159.865 50.4C158.905 49.2267 157.598 48.64 155.945 48.64C154.718 48.64 153.571 48.9333 152.505 49.52C151.491 50.0533 150.665 50.96 150.025 52.24C149.438 53.52 149.145 55.2533 149.145 57.44V78H131.065ZM215.873 78.8C209.846 78.8 205.153 77.36 201.793 74.48C198.433 71.5467 196.753 67.0667 196.753 61.04V24.4H214.833V60.88C214.833 62.2133 215.18 63.2533 215.873 64C216.62 64.7467 217.526 65.12 218.593 65.12C220.14 65.12 221.5 64.72 222.673 63.92L226.993 76.48C225.606 77.28 223.926 77.8667 221.953 78.24C220.033 78.6133 218.006 78.8 215.873 78.8ZM190.753 47.44V34.24H223.793V47.44H190.753ZM262.055 78.8C256.721 78.8 252.055 77.8133 248.055 75.84C244.108 73.8667 241.041 71.1733 238.855 67.76C236.668 64.2933 235.575 60.4 235.575 56.08C235.575 51.6533 236.641 47.7333 238.775 44.32C240.961 40.9067 243.921 38.24 247.655 36.32C251.441 34.4 255.681 33.44 260.375 33.44C264.695 33.44 268.668 34.2933 272.295 36C275.975 37.7067 278.908 40.24 281.095 43.6C283.335 46.96 284.455 51.12 284.455 56.08C284.455 56.72 284.428 57.44 284.375 58.24C284.321 58.9867 284.268 59.68 284.215 60.32H250.535V51.6H274.615L267.815 53.92C267.815 52.2133 267.495 50.7733 266.855 49.6C266.268 48.3733 265.441 47.44 264.375 46.8C263.308 46.1067 262.028 45.76 260.535 45.76C259.041 45.76 257.735 46.1067 256.615 46.8C255.548 47.44 254.721 48.3733 254.135 49.6C253.548 50.7733 253.255 52.2133 253.255 53.92V56.64C253.255 58.5067 253.628 60.1067 254.375 61.44C255.121 62.7733 256.188 63.7867 257.575 64.48C258.961 65.12 260.641 65.44 262.615 65.44C264.641 65.44 266.295 65.1733 267.575 64.64C268.908 64.1067 270.295 63.3067 271.735 62.24L281.175 71.76C279.041 74.0533 276.401 75.8133 273.255 77.04C270.161 78.2133 266.428 78.8 262.055 78.8ZM291.785 78L312.425 50.96L311.945 61.36L292.265 34.24H312.665L322.345 48.72L314.825 49.28L325.465 34.24H344.425L324.665 60.48V50.48L344.825 78H324.105L314.105 62.56L321.705 63.6L311.385 78H291.785ZM376.704 78.8C370.678 78.8 365.984 77.36 362.624 74.48C359.264 71.5467 357.584 67.0667 357.584 61.04V24.4H375.664V60.88C375.664 62.2133 376.011 63.2533 376.704 64C377.451 64.7467 378.358 65.12 379.424 65.12C380.971 65.12 382.331 64.72 383.504 63.92L387.824 76.48C386.438 77.28 384.758 77.8667 382.784 78.24C380.864 78.6133 378.838 78.8 376.704 78.8ZM351.584 47.44V34.24H384.624V47.44H351.584ZM400.458 78V22H419.338V63.36H444.618V78H400.458ZM456.79 78V34.24H474.87V78H456.79ZM465.83 30.72C462.523 30.72 459.883 29.84 457.91 28.08C455.936 26.32 454.95 24.1333 454.95 21.52C454.95 18.9067 455.936 16.72 457.91 14.96C459.883 13.2 462.523 12.32 465.83 12.32C469.136 12.32 471.776 13.1467 473.75 14.8C475.723 16.4533 476.71 18.5867 476.71 21.2C476.71 23.9733 475.723 26.2667 473.75 28.08C471.776 29.84 469.136 30.72 465.83 30.72ZM490.4 78V34.24H507.6V47.04L504.16 43.36C505.867 40.0533 508.16 37.5733 511.04 35.92C513.973 34.2667 517.227 33.44 520.8 33.44C524.16 33.44 527.2 34.1333 529.92 35.52C532.64 36.8533 534.773 38.96 536.32 41.84C537.92 44.72 538.72 48.4533 538.72 53.04V78H520.64V56.16C520.64 53.44 520.16 51.52 519.2 50.4C518.24 49.2267 516.933 48.64 515.28 48.64C514.053 48.64 512.907 48.9333 511.84 49.52C510.827 50.0533 510 50.96 509.36 52.24C508.773 53.52 508.48 55.2533 508.48 57.44V78H490.4ZM575.209 78.8C569.182 78.8 564.489 77.36 561.129 74.48C557.769 71.5467 556.089 67.0667 556.089 61.04V24.4H574.169V60.88C574.169 62.2133 574.515 63.2533 575.209 64C575.955 64.7467 576.862 65.12 577.929 65.12C579.475 65.12 580.835 64.72 582.009 63.92L586.329 76.48C584.942 77.28 583.262 77.8667 581.289 78.24C579.369 78.6133 577.342 78.8 575.209 78.8ZM550.089 47.44V34.24H583.129V47.44H550.089ZM621.39 78.8C616.057 78.8 611.39 77.8133 607.39 75.84C603.444 73.8667 600.377 71.1733 598.19 67.76C596.004 64.2933 594.91 60.4 594.91 56.08C594.91 51.6533 595.977 47.7333 598.11 44.32C600.297 40.9067 603.257 38.24 606.99 36.32C610.777 34.4 615.017 33.44 619.71 33.44C624.03 33.44 628.004 34.2933 631.63 36C635.31 37.7067 638.244 40.24 640.43 43.6C642.67 46.96 643.79 51.12 643.79 56.08C643.79 56.72 643.764 57.44 643.71 58.24C643.657 58.9867 643.604 59.68 643.55 60.32H609.87V51.6H633.95L627.15 53.92C627.15 52.2133 626.83 50.7733 626.19 49.6C625.604 48.3733 624.777 47.44 623.71 46.8C622.644 46.1067 621.364 45.76 619.87 45.76C618.377 45.76 617.07 46.1067 615.95 46.8C614.884 47.44 614.057 48.3733 613.47 49.6C612.884 50.7733 612.59 52.2133 612.59 53.92V56.64C612.59 58.5067 612.964 60.1067 613.71 61.44C614.457 62.7733 615.524 63.7867 616.91 64.48C618.297 65.12 619.977 65.44 621.95 65.44C623.977 65.44 625.63 65.1733 626.91 64.64C628.244 64.1067 629.63 63.3067 631.07 62.24L640.51 71.76C638.377 74.0533 635.737 75.8133 632.59 77.04C629.497 78.2133 625.764 78.8 621.39 78.8ZM657.013 78V34.24H674.213V47.44L671.413 43.68C672.746 40.2667 674.879 37.7067 677.813 36C680.746 34.2933 684.266 33.44 688.373 33.44V49.44C687.573 49.3333 686.853 49.2533 686.213 49.2C685.626 49.1467 685.013 49.12 684.373 49.12C681.653 49.12 679.413 49.84 677.653 51.28C675.946 52.6667 675.093 55.0933 675.093 58.56V78H657.013Z" fill="url(#paint1_linear_2121_345)"/>
<defs>
<linearGradient id="paint0_linear_2121_345" x1="0" y1="106" x2="561" y2="106" gradientUnits="userSpaceOnUse">
<stop stop-color="#10B981"/>
<stop offset="1" stop-color="#06B6D4"/>
</linearGradient>
<linearGradient id="paint1_linear_2121_345" x1="0" y1="49" x2="690" y2="49" gradientUnits="userSpaceOnUse">
<stop stop-color="#10B981"/>
<stop offset="1" stop-color="#06B6D4"/>
</linearGradient>
</defs>
</svg>
